<?xml version="1.0" encoding="UTF-8"?>
<svg id="Layer_1" xmlns="http://www.w3.org/2000/svg" xmlns:xlink="http://www.w3.org/1999/xlink" version="1.1" viewBox="194.833 369.14 207.044 104.57">
  <!-- Generator: Adobe Illustrator 29.8.1, SVG Export Plug-In . SVG Version: 2.1.1 Build 2)  -->
  <defs>
    <style>
      .st0 {
        fill: #231f20;
      }

      .st1 {
        fill: url(#linear-gradient);
      }

      .st2 {
        fill: #fff;
      }

      .st3 {
        fill: #c4161c;
      }
    </style>
    <linearGradient id="linear-gradient" x1="198.76" y1="421.42" x2="397.96" y2="421.42" gradientUnits="userSpaceOnUse">
      <stop offset="0" stop-color="#f9ca18"/>
      <stop offset="0" stop-color="#f9ca18"/>
      <stop offset=".17" stop-color="#996828"/>
      <stop offset=".25" stop-color="#f7f3ce"/>
      <stop offset=".28" stop-color="#f4eabc"/>
      <stop offset=".35" stop-color="#edd590"/>
      <stop offset=".4" stop-color="#e6be61"/>
      <stop offset=".6" stop-color="#bc832b"/>
      <stop offset=".68" stop-color="#996828"/>
      <stop offset=".75" stop-color="#e9da70"/>
      <stop offset=".84" stop-color="#f8cb67"/>
      <stop offset=".96" stop-color="#996828"/>
      <stop offset="1" stop-color="#d49f45"/>
    </linearGradient>
  </defs>
  <path class="st3" d="M398.26,426.33c1.18,10.79,4.38,20.79,3.45,28.68-.76,7.83-5.66,13.54-16.84,14.44-68.09,5.68-104.94,5.68-173.03,0-11.18-.91-16.08-6.62-16.84-14.44-.93-7.88,2.27-17.88,3.45-28.68.44-3.27.44-6.54,0-9.81-1.17-10.79-4.37-20.79-3.45-28.68.76-7.82,5.66-13.53,16.84-14.44,68.09-5.68,104.94-5.68,173.03,0,11.18.91,16.08,6.62,16.84,14.45.93,7.88-2.27,17.88-3.45,28.67-.43,3.27-.43,6.54,0,9.81Z"/>
  <path class="st1" d="M212.17,377.31h0c-4.43.36-7.79,1.57-9.97,3.59-1.9,1.76-2.97,4.15-3.28,7.32v.04s0,.04,0,.04c-.09.81-.14,1.66-.14,2.55,0,3.94.85,8.59,1.74,13.45.69,3.76,1.4,7.66,1.85,11.75.23,1.78.35,3.58.35,5.37s-.12,3.59-.35,5.37c-.45,4.09-1.16,7.98-1.85,11.75-.89,4.87-1.74,9.52-1.74,13.45,0,.89.04,1.74.14,2.55v.04s0,.04,0,.04c.31,3.17,1.38,5.57,3.28,7.32,2.18,2.03,5.54,3.23,9.97,3.59,33.79,2.82,52.42,4.25,86.2,4.25s52.42-1.43,86.19-4.25c4.44-.36,7.8-1.57,9.99-3.59,1.89-1.76,2.97-4.15,3.28-7.32v-.04s0-.04,0-.04c.09-.81.14-1.66.14-2.55,0-3.94-.85-8.58-1.74-13.45-.69-3.76-1.4-7.65-1.84-11.75-.23-1.78-.35-3.58-.35-5.37s.12-3.59.35-5.37c.44-4.09,1.15-7.98,1.84-11.75.89-4.87,1.74-9.52,1.74-13.46,0-.88-.04-1.74-.14-2.55v-.04s0-.04,0-.04c-.31-3.17-1.38-5.56-3.28-7.32-2.19-2.02-5.54-3.23-9.98-3.59-33.79-2.82-52.42-4.25-86.2-4.25s-52.41,1.43-86.19,4.25Z"/>
  <path class="st3" d="M212.5,381.22h-.02c-3.48.29-6.12,1.17-7.62,2.56-.74.69-1.76,1.94-2.04,4.83v.08s-.02.08-.02.08c-.08.62-.11,1.32-.11,2.08,0,3.58.81,8.03,1.68,12.74.7,3.83,1.42,7.79,1.89,12.03v-.08c.24,1.94.37,3.92.37,5.88s-.13,3.93-.38,5.88v-.08c-.45,4.24-1.17,8.2-1.87,12.03-.86,4.71-1.68,9.17-1.68,12.75,0,.76.04,1.46.11,2.09v.08s.02.08.02.08c.28,2.89,1.3,4.14,2.04,4.82,1.5,1.39,4.14,2.28,7.62,2.56,33.69,2.81,52.21,4.23,85.88,4.23s52.2-1.42,85.86-4.23c3.5-.28,6.15-1.17,7.65-2.56.74-.69,1.76-1.93,2.04-4.82v-.08s.01-.09.01-.09c.08-.62.12-1.32.12-2.08,0-3.58-.81-8.04-1.68-12.75-.7-3.83-1.42-7.79-1.89-12.03l.02.08c-.26-1.94-.39-3.92-.39-5.88s.13-3.94.39-5.88l-.02.08c.46-4.24,1.19-8.2,1.89-12.03.86-4.71,1.68-9.17,1.68-12.75,0-.76-.04-1.46-.12-2.09v-.08s-.01-.08-.01-.08c-.28-2.89-1.3-4.14-2.04-4.82-1.5-1.39-4.14-2.28-7.63-2.56-33.69-2.81-52.21-4.23-85.88-4.23s-52.19,1.43-85.86,4.23Z"/>
  <g>
    <g>
      <path class="st0" d="M298.17,384.72c2.45-.27,3.2-4.48.38-5.35-1.23-.18-2.96-.31-2.9,2.52l.02.02c-.06,2.07,1.35,2.77,2.51,2.81ZM305.43,390.54c1.13-1.35-2.26-2.98-3.3-1.75-4.1,4.82-11.24-1.93-11.62-6.92-.12-1.71-3.81-2.36-3.66-.42.61,8.34,12.85,15.9,18.58,9.09ZM315.91,398.25c1.57-1.43-.13-4.91-2.12-3.14-2.67,2.4-3.82,6.58-4.69,10.11-.04.18-.07.35-.11.54-1-2.8-2.29-5.43-3.92-7.77-1.13-1.62-2.71-.3-3,1.23-.75-3.17-4.08-4.91-7.86-4.78-5.97.2-12.76,2.7-17.27,6.4-1.6,1.31-.3,5.75,1.66,4.13,4.44-3.68,11.15-6.21,17.09-6.12,2.54.05,3.3,1.41,2.86,2.85-.79-.01-1.54.59-1.54,1.9,0,.06,0,.13,0,.19-.09.07-.18.15-.29.22-2.9,1.98-6.91,2.71-10.27,3.98-4.47,1.67-9.62,4.9-8.18,10.62,1.92,7.63,14.25,12.65,20.25,15.79,1.06.56,1.96-.55,2.15-1.45,1.11-5.18,1.61-10.29,1.15-15.61-.32-3.88-1.15-7.71-1.37-11.55.65-.89,1.17-1.94,1.5-3.21.17-.7.26-1.35.26-1.96.04.08.08.17.14.25,2.74,3.93,4.39,8.79,5.25,13.86-.52,6.46-.27,13.16.18,19.77.18,2.9,3.2,1.37,3.47-.55.82-5.87.93-12.87-.12-19.59.19-2.37.5-4.7.96-6.98.61-3.12,1.46-7.03,3.79-9.14ZM297.82,429.08c-4.93-2.59-9.93-5.34-14.14-9.16-4.62-4.17,1.13-6.47,4.57-7.79,3.14-1.2,6.45-2.02,9.07-3.56.2,1.84.46,3.69.73,5.54.76,5.13.64,10-.23,14.97ZM339.54,445.86c.35-.42.67-.82.97-1.18,1.38-1.71-.48-5.27-2.23-3.13-.41.5-.84,1.04-1.3,1.6-1.46-1.43-3-2.78-4.69-3.96-4.16-2.93-11.33-5.08-14.6-.49-3.35,4.68,1.57,11.8,5.7,14.42,4.94,3.13,9.98-.58,13.67-4.45,3.84,4.3,7.18,9.49,10.61,13.31,1.81,2.03,3.83-1.66,2.38-3.29-3.69-4.11-6.88-8.71-10.52-12.83ZM326.05,449.35c-1.57-.3-7.85-6.03-5.55-8.14,1.38-1.27,4.17-.54,5.8-.11,3.04.83,5.69,2.62,8.13,4.87-2.33,2.26-5.11,4.01-8.38,3.38ZM366.39,396.17c-.39.48-.9.97-1.51,1.45-1.57-5.22-4.38-9.9-9.71-11.8-8.52-3.04-20.37,7.16-11.91,16.11,3.49,3.69,9.43,3.37,13.33,2.77,1.95-.3,3.91-.85,5.75-1.61.75,3.93.99,8,1.08,11.96-1.95-1.92-4-3.67-6.18-5.15,0-.02,0-.03,0-.04-.12-1.07-1.03-1.35-1.92-1.14-1.08-.61-2.2-1.17-3.38-1.64-5.75-2.31-11.89-1.79-17.58-.72-.62-1.11-1.99-1.44-2.69-.1-.27.51-.6,1.1-.97,1.68-1.34,1.2-2.7,2.36-4.1,3.48-.87.17-1.83,0-2.84-.73-2.51-1.78-3.37-5.48-3.06-8.13.22-1.81,1.07-3.08,2.27-3.95.06,3.28,2.11,6.62,6.13,6.21,3.81-.38,7.79-4.28,4.91-8.51-1.23-1.84-2.64-2.86-4.17-3.32-.15-.09-.32-.16-.5-.2-.7-.16-1.35-.17-1.94-.11-1.18.03-2.43.3-3.72.7-6.84,2.14-7.86,11.32-4.16,17.7.94,1.64,1.97,2.79,3.02,3.52-2.29,1.75-4.62,3.5-6.94,5.36-.8.63-1.01,2.09-.47,3.07,3.83,6.93,10.12,11.93,16.89,15.31.76.37,1.59-.26,1.78-.98,2.36-9.03,1.26-18.47.96-27.69,5.13-1.05,10.36-1.58,15.65.23,1.1.38,2.18.88,3.2,1.48.42,4.15.65,8.32.85,12.5-.68-1.32-1.5-2.6-2.43-3.79-3.84-4.88-9.67-5.13-13.12-1.04-3.92,4.65-3.03,13.86,2.47,18,1.9,1.42,4.89.87,6.29-.66,2.25-2.46,2.68-5.36,1.76-8.9-.61-2.35-4.37-1.02-3.83,1.08.49,1.91.32,7.36-2.72,4.43-1.8-1.74-2.32-4.58-2.35-6.84-.06-4.41,2.66-8.6,7.05-5.14,4.78,3.75,6.08,11.77,7.57,17.26.68,2.5,3.91.84,3.77-1.13-.5-7.7-.64-15.28-1.23-22.8,1.45,1.25,2.82,2.62,4.15,3.97.44.46,1.07.65,1.7.62,0,.46.01.93.02,1.39.1,7.17-.42,14.35-.25,21.72.05,2.33,3.92,1.44,3.85-.67-.29-10.68.56-20.96-.24-31.36-.19-2.67-.5-5.75-1.1-8.8,1.35-.9,2.54-1.94,3.53-3.15,1.51-1.86-1.7-3.39-2.91-1.91ZM344.68,397.01c-2.35-5.69,4.66-9.25,8.92-8.25,3.67.87,5.66,4.52,6.94,7.83.39,1.02.73,2.06,1.03,3.12-5.71,2.88-14.08,4.11-16.89-2.7ZM326.35,397.79c.19-.32.44-.53.73-.67.71-.09,1.42-.13,2.12-.12.12.02.25.04.36.07.15.03.28.03.39.01,2.7.59.23,4.18-2.83,3.37-1.3-.35-1.22-1.86-.77-2.66ZM331.24,433.27c-4.66-2.54-9.18-6.02-12.25-10.56,3.5-2.77,6.99-5.36,10.33-8.13.85-.51,1.64-1.18,2.38-1.95.35,6.88.95,13.95-.46,20.64ZM283.63,428.8c-3.68-.19-5.3,2.85-5.37,6.16,0,.16,0,.31.01.47v.21c0,3.22,2.45,7.39,6.24,6.54,3.18-.71,4.77-4.1,4.68-7.19-.09-3.21-2.24-6.03-5.56-6.2ZM284.16,437.28c-.48.26-1.12.22-1.63-.04-.66-.34-.66-.88-.66-1.52.05-1.25.24-2.07,1.69-2.17,1.02-.07,1.98.18,2.09,1.28.09.99-.69,2.03-1.49,2.45Z"/>
      <g>
        <g>
          <path class="st0" d="M226.61,452.34c.41-17.22,3.02-21.9,4.54-25h0c1.65-3.3,6.88-6.26,8.07-8.08h0c.31-.46.54-.81.67-1.05h0c-.31-.02-.76-.02-1.29-.09h0c-1.25-.17-2.95-.87-4.29-3.04h0c-.64-1.04-1.08-2.52-1.09-4.17h0c0-1.81.57-3.82,2.09-5.52h0c1.43-1.61,3.06-2.33,4.3-2.84h0c1.28-.5,1.98-.87,2.01-1.23h0c1.61-5.89,5.31-15.99,14.01-16.08h0c2.14,0,4.54.64,7.2,2.1h0c5.99,3.33,7.51,5.16,7.61,6.72h0c-.03.54-.24.92-.5,1.17h0c.63,1.17.78,2.59.79,3.77h0c0,.59-.04,1.12-.1,1.54h0c-.1.45-.07.63-.34,1.03h0c-.51.6-.73,1.4-.73,2.35h0c0,2.47,1.45,5.32,1.51,6.7h0c0,.22-.04.61-.43.86h0c-1.07.55-2.76.37-3.11.62h0c-.43.58-.94,1.87-1.39,3.03h0c-.53,1.2-.68,2.13-1.51,2.69h0c-.26.12-.54.16-.82.16h0c-1.28-.03-2.83-.82-4.34-1.56h0c-1.4-.74-2.87-1.43-3.19-1.43h0c-1.08.65-1.53,1.62-2.11,4.98h0c0,.07,0,.14,0,.23h0c.03,1.62.69,2.34,2.02,3.18h0c1.33.8,3.28,1.48,5.36,2.67h0c4.18,2.39,5.41,2.64,7.1,5.01h0c1.65,2.32,3.73,6.56,10.13,17.22h0l-1.08.65c-6.4-10.66-8.54-14.99-10.08-17.13h0c-1.48-2.09-2.35-2.18-6.7-4.65h0c-1.97-1.13-3.87-1.79-5.38-2.69h0c-1.49-.86-2.65-2.18-2.62-4.26h0c0-.09,0-.2.01-.38h0c.56-3.46,1.16-5.01,2.76-5.95h0c.2-.12.39-.14.56-.14h0c1.02.05,2.27.82,3.8,1.56h0c1.45.75,3.05,1.45,3.76,1.43h0c.11,0,.19-.01.25-.02h0s.03-.04.05-.07h0c.06-.1.14-.25.23-.44h0c.19-.39.4-.94.62-1.52h0c.46-1.16.95-2.47,1.55-3.31h0c.58-.66,1.26-.58,1.94-.69h0c.52-.04,1.05-.1,1.36-.19h0c-.12-.89-1.48-3.92-1.49-6.55h0c0-1.1.25-2.22.98-3.11h0s0-.03.01-.04h0c.02-.09.05-.24.08-.41h0c.05-.35.09-.83.09-1.36h0c0-1.23-.25-2.72-.88-3.56h0c-.1-.1-.2-.25-.22-.48h0c0-.21.07-.29.11-.37h0l.47-.7.22.27s.01-.06.01-.1h0c.09-.44-1-2.41-6.95-5.61h0c-2.53-1.38-4.7-1.95-6.6-1.95h0c-7.49-.09-11.24,9.28-12.79,15.15h0c-.41,1.26-1.59,1.55-2.76,2.06h0c-1.2.5-2.58,1.12-3.84,2.52h0c-1.28,1.44-1.75,3.12-1.75,4.67h0c0,1.42.4,2.71.89,3.5h0c1.04,1.65,2.1,2.16,3.02,2.39h0c.97.25,1.61.01,2.4.31h0c.25.1.52.49.49.81h0c-.04.65-.38,1.08-1.02,2.05h0c-1.6,2.24-6.68,5.16-7.98,7.93h0c-1.49,3.08-3.98,7.31-4.41,24.48h0l-1.26-.03h0Z"/>
          <path class="st0" d="M251.03,408.32c-.62,0-1.3-.05-1.99-.15h0l.18-1.25c.65.09,1.25.14,1.82.14h0c4.65,0,6.99-2.96,9.13-6.18h0c2.11-3.14,3.84-6.68,7.6-6.75h0c.46,0,.92.06,1.42.18h0l-.29,1.23c-.41-.1-.78-.14-1.13-.14h0c-2.74-.06-4.39,2.86-6.54,6.18h0c-2.12,3.24-4.88,6.74-10.16,6.74h-.02Z"/>
        </g>
        <path class="st0" d="M255.84,433.27c-2.12-.11-4.55-2.64-7.66-5.08h0c-3.04-2.46-6.51-4.82-9.58-4.8h0c-2.04.02-3.99.95-5.88,3.8h0l-1.06-.69c2.02-3.08,4.46-4.37,6.93-4.36h0c3.7.03,7.27,2.6,10.37,5.08h0c3.03,2.5,5.85,4.91,6.87,4.8h0c.27-.03.36-.04.59-.46h0c.2-.43.36-1.27.36-2.54h0c0-1.06-.1-2.41-.3-4.1h0l1.25-.15c.21,1.72.32,3.12.32,4.25h0c-.02,1.36-.14,2.34-.48,3.07h0c-.3.71-.97,1.2-1.68,1.2h0s-.04,0-.06,0h0ZM256.48,424.9h0s0,0,0,0h0Z"/>
      </g>
    </g>
    <g>
      <path class="st2" d="M298.17,384.25c2.45-.27,3.2-4.47.38-5.35-1.23-.18-2.96-.31-2.9,2.53l.02.02c-.06,2.07,1.35,2.77,2.51,2.81ZM305.43,390.06c1.13-1.35-2.26-2.98-3.3-1.75-4.1,4.82-11.24-1.93-11.62-6.92-.12-1.71-3.81-2.36-3.66-.43.61,8.35,12.85,15.9,18.58,9.09ZM315.91,397.78c1.57-1.43-.13-4.91-2.12-3.14-2.67,2.4-3.82,6.58-4.69,10.11-.04.18-.08.35-.11.54-1-2.81-2.29-5.43-3.92-7.78-1.13-1.61-2.71-.3-3,1.23-.75-3.17-4.08-4.91-7.86-4.78-5.97.2-12.76,2.7-17.27,6.4-1.6,1.31-.3,5.75,1.66,4.13,4.44-3.68,11.15-6.21,17.1-6.12,2.53.05,3.28,1.41,2.85,2.85-.79-.01-1.54.59-1.54,1.9,0,.06,0,.13,0,.2-.09.07-.18.14-.29.22-2.9,1.98-6.91,2.71-10.28,3.98-4.46,1.68-9.62,4.9-8.18,10.62,1.92,7.62,14.25,12.65,20.25,15.78,1.06.56,1.96-.55,2.15-1.45,1.11-5.18,1.6-10.29,1.15-15.61-.32-3.88-1.15-7.71-1.37-11.54.65-.89,1.17-1.94,1.5-3.22.17-.7.26-1.35.26-1.95.04.07.08.17.14.25,2.74,3.93,4.39,8.79,5.26,13.86-.53,6.45-.28,13.16.17,19.77.19,2.9,3.21,1.37,3.47-.55.82-5.87.94-12.87-.12-19.59.19-2.37.5-4.7.96-6.98.62-3.12,1.46-7.03,3.8-9.14ZM297.82,428.61c-4.93-2.6-9.93-5.35-14.14-9.16-4.62-4.17,1.13-6.48,4.57-7.79,3.14-1.21,6.45-2.02,9.07-3.56.2,1.84.46,3.68.73,5.54.76,5.13.64,10-.23,14.97ZM339.54,445.39c.35-.42.67-.82.97-1.18,1.38-1.71-.48-5.27-2.23-3.13-.41.5-.84,1.04-1.31,1.6-1.45-1.43-2.99-2.78-4.68-3.96-4.16-2.94-11.33-5.07-14.6-.49-3.35,4.68,1.57,11.8,5.7,14.42,4.93,3.13,9.98-.58,13.67-4.45,3.84,4.3,7.18,9.48,10.61,13.3,1.81,2.03,3.83-1.66,2.38-3.3-3.69-4.11-6.88-8.71-10.52-12.82ZM326.05,448.87c-1.57-.3-7.85-6.02-5.55-8.14,1.38-1.27,4.17-.54,5.79-.11,3.04.84,5.7,2.61,8.14,4.87-2.33,2.26-5.11,4.02-8.38,3.38ZM366.39,395.69c-.39.48-.9.97-1.51,1.45-1.57-5.23-4.38-9.9-9.71-11.8-8.52-3.04-20.37,7.17-11.91,16.11,3.49,3.7,9.43,3.37,13.33,2.77,1.95-.3,3.91-.85,5.75-1.62.75,3.93.99,8,1.08,11.97-1.95-1.91-4-3.67-6.18-5.14,0-.02,0-.03,0-.05-.12-1.07-1.03-1.35-1.92-1.14-1.08-.61-2.2-1.17-3.37-1.64-5.75-2.31-11.89-1.8-17.59-.73-.62-1.11-1.99-1.43-2.68-.1-.27.51-.6,1.1-.97,1.68-1.34,1.2-2.7,2.36-4.1,3.49-.87.16-1.83,0-2.84-.73-2.51-1.77-3.37-5.47-3.06-8.13.22-1.81,1.07-3.08,2.27-3.95.06,3.29,2.1,6.62,6.13,6.22,3.81-.38,7.79-4.28,4.91-8.51-1.23-1.84-2.64-2.86-4.17-3.32-.16-.09-.32-.16-.5-.19-.7-.15-1.35-.17-1.94-.11-1.18.03-2.44.3-3.72.69-6.84,2.14-7.86,11.32-4.17,17.7.94,1.64,1.97,2.79,3.02,3.53-2.29,1.75-4.62,3.5-6.94,5.36-.8.63-1.01,2.08-.47,3.07,3.83,6.93,10.12,11.93,16.89,15.32.76.37,1.59-.27,1.78-.98,2.36-9.03,1.26-18.46.96-27.68,5.13-1.06,10.36-1.59,15.65.22,1.1.38,2.18.88,3.2,1.48.42,4.15.65,8.31.85,12.5-.68-1.32-1.5-2.6-2.43-3.79-3.84-4.87-9.67-5.13-13.13-1.04-3.92,4.65-3.02,13.87,2.48,18,1.9,1.42,4.9.87,6.29-.66,2.25-2.46,2.68-5.36,1.76-8.91-.61-2.34-4.37-1.01-3.83,1.08.49,1.91.32,7.37-2.72,4.43-1.8-1.74-2.32-4.58-2.35-6.84-.06-4.41,2.66-8.59,7.05-5.14,4.78,3.75,6.08,11.77,7.57,17.25.67,2.5,3.91.84,3.77-1.13-.51-7.7-.65-15.28-1.24-22.8,1.45,1.25,2.82,2.61,4.15,3.96.44.46,1.07.65,1.7.62,0,.47.01.94.02,1.4.1,7.17-.42,14.36-.25,21.72.05,2.33,3.92,1.44,3.85-.67-.29-10.67.56-20.97-.24-31.36-.19-2.68-.5-5.75-1.1-8.8,1.33-.9,2.54-1.94,3.53-3.15,1.52-1.86-1.7-3.39-2.91-1.91ZM344.69,396.54c-2.36-5.69,4.65-9.26,8.91-8.25,3.67.87,5.66,4.52,6.94,7.83.39,1.02.73,2.06,1.03,3.12-5.71,2.88-14.08,4.12-16.88-2.7ZM326.35,397.32c.19-.33.44-.53.73-.67.71-.09,1.42-.12,2.12-.11.12.02.25.04.36.06.15.03.28.03.39.02,2.7.59.23,4.18-2.83,3.36-1.3-.35-1.22-1.86-.77-2.66ZM331.24,432.8c-4.66-2.54-9.18-6.02-12.25-10.56,3.5-2.77,6.99-5.36,10.33-8.13.85-.52,1.64-1.19,2.38-1.95.36,6.88.95,13.95-.46,20.64ZM283.63,428.33c-3.68-.18-5.3,2.86-5.37,6.17,0,.15,0,.31.01.47v.21c0,3.22,2.45,7.39,6.24,6.54,3.18-.72,4.77-4.1,4.68-7.19-.09-3.21-2.24-6.02-5.56-6.2ZM284.16,436.81c-.48.26-1.12.22-1.63-.04-.66-.34-.66-.88-.66-1.52.05-1.24.24-2.07,1.69-2.17,1.02-.07,1.99.18,2.09,1.27.09.99-.69,2.03-1.49,2.45Z"/>
      <g>
        <g>
          <path class="st2" d="M226.61,451.86c.41-17.22,3.02-21.9,4.54-24.99h0c1.65-3.31,6.88-6.27,8.07-8.09h0c.31-.46.54-.81.67-1.04h0c-.31-.01-.76-.02-1.29-.1h0c-1.25-.17-2.95-.87-4.29-3.04h0c-.64-1.04-1.08-2.52-1.08-4.17h0c0-1.81.56-3.82,2.08-5.52h0c1.43-1.6,3.06-2.33,4.3-2.84h0c1.28-.49,1.98-.87,2.01-1.23h0c1.61-5.89,5.31-15.99,14.01-16.09h0c2.15,0,4.54.65,7.2,2.1h0c5.98,3.33,7.51,5.16,7.61,6.72h0c-.03.54-.24.92-.5,1.17h0c.63,1.16.78,2.59.79,3.77h0c0,.6-.04,1.12-.1,1.54h0c-.1.45-.07.63-.34,1.03h0c-.51.6-.72,1.4-.73,2.35h0c0,2.47,1.45,5.32,1.51,6.7h0c0,.23-.04.62-.43.86h0c-1.07.55-2.75.37-3.11.62h0c-.43.57-.94,1.86-1.39,3.02h0c-.53,1.2-.68,2.14-1.51,2.69h0c-.26.12-.54.16-.82.16h0c-1.28-.02-2.83-.82-4.34-1.57h0c-1.4-.73-2.87-1.44-3.19-1.43h0c-1.08.66-1.53,1.62-2.11,4.99h0c0,.06,0,.14,0,.23h0c.03,1.62.69,2.34,2.02,3.18h0c1.33.8,3.28,1.49,5.36,2.67h0c4.18,2.38,5.41,2.64,7.1,5.02h0c1.64,2.32,3.73,6.56,10.13,17.22h0l-1.08.64c-6.4-10.65-8.54-14.99-10.07-17.13h0c-1.49-2.09-2.36-2.18-6.7-4.65h0c-1.97-1.12-3.87-1.79-5.38-2.68h0c-1.5-.87-2.66-2.19-2.63-4.26h0c0-.1,0-.2.01-.38h0c.56-3.46,1.16-5.01,2.76-5.95h0c.2-.12.39-.14.56-.14h0c1.01.05,2.27.82,3.79,1.56h0c1.45.75,3.05,1.46,3.76,1.43h0c.11,0,.2-.01.25-.03h0s.03-.03.05-.06h0c.06-.1.14-.25.23-.45h0c.19-.39.4-.93.62-1.51h0c.46-1.16.95-2.47,1.55-3.31h0c.58-.67,1.26-.58,1.94-.7h0c.52-.03,1.06-.1,1.36-.18h0c-.12-.9-1.48-3.93-1.49-6.56h0c0-1.1.25-2.21.98-3.12h0s0-.02.01-.04h0c.02-.09.06-.24.08-.41h0c.05-.35.09-.82.09-1.36h0c.01-1.23-.24-2.73-.88-3.56h0c-.1-.1-.2-.25-.22-.48h0c0-.21.07-.3.11-.37h0l.47-.7.22.27s.01-.06.01-.1h0c.09-.44-1-2.41-6.95-5.61h0c-2.53-1.38-4.7-1.95-6.6-1.95h0c-7.49-.09-11.24,9.28-12.79,15.16h0c-.41,1.26-1.59,1.56-2.76,2.06h0c-1.2.5-2.58,1.12-3.84,2.52h0c-1.28,1.43-1.75,3.12-1.75,4.67h0c0,1.41.4,2.7.89,3.5h0c1.04,1.64,2.1,2.16,3.02,2.39h0c.97.25,1.61.01,2.4.31h0c.25.1.52.49.49.8h0c-.04.65-.38,1.08-1.02,2.06h0c-1.6,2.24-6.68,5.16-7.98,7.92h0c-1.48,3.08-3.98,7.31-4.41,24.47h0l-1.26-.03h0Z"/>
          <path class="st2" d="M251.03,407.85c-.62,0-1.3-.05-1.99-.15h0l.18-1.25c.65.1,1.25.14,1.82.14h0c4.65,0,6.99-2.96,9.13-6.18h0c2.11-3.14,3.84-6.69,7.6-6.74h0c.46,0,.92.05,1.42.17h0l-.29,1.23c-.41-.1-.78-.14-1.13-.14h0c-2.74-.06-4.39,2.86-6.54,6.18h0c-2.12,3.24-4.88,6.74-10.16,6.74h-.02Z"/>
        </g>
        <path class="st2" d="M255.84,432.8c-2.12-.11-4.55-2.64-7.66-5.07h0c-3.04-2.47-6.51-4.83-9.58-4.8h0c-2.04.02-3.99.95-5.88,3.79h0l-1.06-.7c2.02-3.08,4.46-4.36,6.93-4.36h0c3.7.02,7.27,2.6,10.37,5.08h0c3.03,2.5,5.85,4.91,6.87,4.8h0c.27-.03.36-.04.59-.46h0c.21-.43.36-1.27.36-2.54h0c0-1.06-.1-2.41-.3-4.1h0l1.25-.16c.21,1.73.32,3.13.32,4.26h0c0,1.36-.14,2.34-.48,3.07h0c-.3.72-.97,1.19-1.68,1.19h-.06ZM256.48,424.43h0Z"/>
      </g>
    </g>
  </g>
</svg>